<svg xmlns="http://www.w3.org/2000/svg" viewBox="0 0 420.28 420.28"><defs><style>.cls-1{fill:#9aa3b4;stroke-miterlimit:10;stroke-width:3px;}.cls-1,.cls-12{stroke:#3a4a69;}.cls-2{fill:#f2f6f9;}.cls-3{font-size:36.36px;font-family:DINNextRoundedLTPro-Medium, DIN Next Rounded LT Pro;font-weight:500;letter-spacing:0.06em;}.cls-13,.cls-3,.cls-7,.cls-8{fill:#3a4a69;}.cls-4,.cls-5,.cls-6{font-family:DINNextRoundedLTPro-Light, DIN Next Rounded LT Pro;font-weight:300;}.cls-5{letter-spacing:0.04em;}.cls-6{letter-spacing:0.06em;}.cls-8{font-size:13px;font-family:DINNextLTPro-UltraLight, DIN Next LT Pro;font-weight:100;letter-spacing:0.02em;}.cls-9{letter-spacing:0.01em;}.cls-10{letter-spacing:0.01em;}.cls-11{letter-spacing:0.02em;}.cls-12{fill:none;stroke-linejoin:round;stroke-width:2.8px;}.cls-13{font-size:14.94px;font-family:DINNextRoundedLTPro-Regular, DIN Next Rounded LT Pro;letter-spacing:0.05em;}.cls-14{letter-spacing:0.06em;}</style></defs><g id="Layer_2" data-name="Layer 2"><g id="Layer_1-2" data-name="Layer 1"><circle class="cls-1" cx="210.14" cy="210.14" r="208.64"/><circle class="cls-2" cx="210.14" cy="210.14" r="191.41"/><text class="cls-3" transform="translate(108.84 347.18)">PET<tspan class="cls-4" x="68.58" y="0">FE</tspan><tspan class="cls-5" x="112.9" y="0">C</tspan><tspan class="cls-6" x="134.72" y="0">TED</tspan></text><path class="cls-7" d="M143.71,275.14c-1,2.6-4.15,4.33-1.32,7.16,4.45,3.1,2.38,14.74,7.31,14.69,4-1.15,20.43,2.72,19.72-2.73a7.45,7.45,0,0,1,1.52-4.77c.24,5.15-1.92,8.19,5.07,7.48,23.63,0,47.26,0,70.89.18,5.49,0,1.2-3.84,2.61-5.39.36-.34.88-.22.82.41-1,9.12,15.79,3.13,21.53,4.81,5.59-.55,2.88-12,8.14-15.48.84-2.4-2.55-4.43-2.35-7.34,2.44,3,9.62,4.82,7.27,9.57,1.64,8.62,4.86,11.81,7.57,13.1,6.57,3.14,22,.76,27.21.59a3.76,3.76,0,0,1,2.55.71,3.27,3.27,0,0,1,1.08,2,2.81,2.81,0,0,1-.57,2.27c-.54.51-1.42.55-2.6.55-73.26-2.59-153.56,5-223.44-2.53a2.15,2.15,0,0,1,.12-1.49c.9-1.73,4.74-1.37,5.87-1.29,5.2.42,31.15,1.46,34.25-5.45.21-.46,2.27-.39.2-8.42a6.86,6.86,0,0,1,6.55-8.59Z"/><path class="cls-7" d="M251,267.09c4.28,1.51,4.71,13.32,3.88,17.75-2.47-3-4.41-6.28-4.84-10.32.93,1.67,1.85,3.33,3.15,5.65.49-5.12-1-9.11-2.25-13.16Z"/><path class="cls-7" d="M169.4,266.5c-3.13,6,.83,16-4,18.72C165,278.38,165.57,272.14,169.4,266.5Z"/><path class="cls-7" d="M162.63,262.16c-.52-3.72,1.08-6.57,3.82-8.94C165.67,256.38,163.58,259,162.63,262.16Z"/><path class="cls-7" d="M257.08,262.29l-4-8.75C256.1,255.63,257.08,258.7,257.08,262.29Z"/><path class="cls-7" d="M250.89,267l.1-.12C251,266.94,251,267.21,250.89,267Z"/><path class="cls-7" d="M147.15,244.35a5.47,5.47,0,0,0,.31-.68c-.27.05-.49.11-.7.17A.9.9,0,0,0,147.15,244.35Z"/><path class="cls-7" d="M144.79,268.92l-.11.12.16,0Z"/><path class="cls-7" d="M134.44,75h.08l-.07-.08Z"/><path class="cls-7" d="M161.87,118.17h0v0Z"/><path class="cls-7" d="M277.3,137.37l.12-.12-.2.05Z"/><path class="cls-7" d="M179.84,156.36a.41.41,0,0,1,0-.11l-.06,0Z"/><path class="cls-7" d="M303,120.1l-.84.29.15-.87c3.34-3.16,4.69-7.11,4.79-12.1-2,2-2.77,4.4-5.37,6.24,2.94-7,4.45-13.47,2.21-20.59-.79,1.27-.6,2.82-2.28,3.73.63-3.73,0-7-.47-10.38-1.13.14-.17,2-1.58,1.86-1.22-5.12-2.42-10.19-3.73-15.67-3.09,3.62-7.19,4.25-11.13,5.24a.91.91,0,0,1-1.38.3c.87-1.21,2.18-1.81,2.5-3.56-5,1.06-8.79,4.06-13,7,0-2.52,1.58-4,2.49-6.39-7,3.14-12,8.18-17.62,12.69-.07-2.65,1.72-4.37,2.11-7-4.68,2.66-7,7.61-10.16,10.49-.73-.77.53-2-.64-2.84a25.9,25.9,0,0,0-5.25,10.37c-.47,2.12-1.19,2.52-3,1.26-2.21-1.49-4.51-3-7.62-2.71,2.7,2.71,2.7,2.71,3.08,5.63-1.49-.15-1.33-2.63-3.34-2.27,2.28,15.48-15.44,1.11-38,7.31-9.39,2-6-.26-7.86-7.23l-2,2.67c-.69-2.69,1.3-4.26,2.2-6.45-3.8.89-6.23,3.33-9.23,5.46-1.41-5.25-3.16-10-6.83-14.51.13,1.92.23,3.29.37,5.42-3.1-3.43-3.49-7.43-7.73-9.12.1,1.27.16,2.55.21,3.83-2.35-2.26-5.33-4.23-7.55-6.25-3.66-1.35-5.84-5.47-10.35-5.76.54,2.13,2.27,3.51,2,5.71-4.17-2.88-7.84-7.05-13.57-6.85.76.87,2,1.41,2.37,2.93-4.46-.83-8.5-1.75-11.93-5.06-1.5,5.58-2.9,10.81-4.32,16.08-.93-.5,0-1.74-1.1-2.07-1.35,3.34-1,6.83-1,10.35-1.73-.8-1-2.67-1.9-4.26-2.89,6.22-1.41,12.61.73,18.7.51.36.79.79.35,1.39-1.9-1.71-2.69-3.51-4.61-6a16.06,16.06,0,0,0,4.76,12.49c-1.49.67-2.35-.72-3.9-.6,1.2,5.89,16.77,34.2,5.62,34.29,2.7,1.76,5,2.16,6.65,4.21-.48.16-.89.12-1.13-.4-2.43,0-4.91-1.05-7.92.52,5.24,2.56,10.61,3.88,14.75,8.06-3-.19-5.57-1.58-8.58-.83,7.73,2,11.16,9.82,18,13.19a37.4,37.4,0,0,0-7.83,11.78c11.36-5.28,2.11.87,4.14,17.19,1.19-.64.88-2,1.93-2.22.7,2.52-.56,4.92-.48,7.5,2.15-.18,2.89-2.51,5-2.84-.22,3.73-3.11,6.26-3.74,9.73,2.42,1,9.22-6.1,7.91-2.89-5.63,7.95-.24,7.4-7.46,14.74,2.21.47,3.65-1.24,5.67-1.51-.73,3.25-3.06,5.1-4.79,7.55,1.87.38,3-1,4.61-1.17-.09,5.06-5.94,6-7.61,10.58l4.21-1.28c-4.29,10.75-9.31,22-9.18,33.05,4.21-1.19,7.68-6.09,11-9.2-2.3.26-4,2.14-6.37,2.73a35,35,0,0,1,6.86-12.33l-3.6,2.43c2.36-5.24,3.55-10.09,7.07-13.77,2.32-2.69-1.2-.11-2.15-1.13a28.82,28.82,0,0,0,3.62-3.12c-1-.93-2.21.84-3,.5a2.51,2.51,0,0,1-2.05,1.45,2.22,2.22,0,0,1,1.66-2c-1-2.64,3.26-2.56,4-4.56-1.49-.39-2.7,1.18-4.3.48,2.57-5.41,5-16,13-13.2,5.8,2.87,15.34-1.45,16.61,7.64.4-1.38.81-2.76,1.41-4.81,2.24,5.65,7.71,6.68,11.33,10,.37-.42-.21-1.86,1.66-1.41,18,2.37,18.86-7.62,40.56,1.66-9.55,4.31-19.43,9.12-28.78,2.78-2.13,3.06-3.34-.39-4.95-.72-1.21-.25-2-1.64-3.56-1.49,8.63,8.83,19.51,9.12,31.13,6.48-1.18-.22-2.33.16-3.42-.69,6.3-1.6,12.1-4,17.18-8.35l.25,2.42c2.77-3.56,6.6-6.11,7.73-10.45,1.47.17.37,2.12,1.9,1.87,1.1-1.34-.35-3.78,1.71-4.39,1.22-.37.45,2,1.94,2.22.81-.53,0-2.44,2-2.24,4.77,1.71,12.26-3.72,15.21,1,.17,3.24,9.6,13.77,1.76,11.89,1.45,1.93,4.44,3,3.7,5-2.75,6.53,3.72,10,3.88,16l-3.9-2.28c3.38,3.87,6.69,7.89,7.39,13.06-2.24-.55-3.29-2.64-6.33-2.64,4.37,2.95,6.65,7.57,11.86,9.36-.82-11.62-5.09-21.73-9-31.86,8.42-.29-3.39-5.71-3.79-9.22,1.24-.69,2.38.55,4.19-.15-5.91-2.59-3.6-8.35-5.92-12.37,1.68-.45,2.76,1.23,4.23.23-1.67-2.47-4.2-4.41-4.85-7.77,3,.62,5.17,3.33,8.54,2.64-1.42-3.24-4.15-5.6-4.4-9.19,1.7.19,2.41,2.11,4.21,2-.06-2.41-.94-4.63-.47-6.91,1.06,0,.64,1.78,1.94,1.67.4-6.52-.95-12.82-2.25-19,2.05-.55,3.35,1.25,5.21.72-2-4.43-5-7.86-7.58-11,7.16-3.33,10.58-11.45,18.48-13.41-2.9-.88-5.21.86-8.17.8,3.94-4,8.88-5.51,13.23-8.11-1.24-1.21-9.91.55-7.26-.53,1.22-1.87,3.75-1.91,5.29-3.66-1.32-1.28-3-.69-4.27-1.14,3.21-11.16,5.72-22.38,11.2-33.31Zm-15.8-10.24C284.54,121,277.05,127.54,266,132,274.28,124.65,282.69,120.32,287.16,109.86Zm-5.56-3.14c-2.17,13.09-19.25,16.42-20.76,29.81C260,122.67,276.9,118.41,281.6,106.72ZM249.79,115c1.23-9.3,16-27,26.26-26.72-8.9,5.52-16.4,12-18.95,22.45,2.54-1.45,3.37-4.4,5.47-6.23a6.33,6.33,0,0,1,2.18-2.87c-1.43,4.35-4,6.57-6.11,11.55,3.91-2,4.4-5.94,7.69-7.74-1.36,4.91-5.68,8.39-5.52,13.9,2.91-1.33,4.18-4.26,6.81-5.43.24-.68,1-1.62,1.32-1.28.93.88-.44,1.22-.81,1.81-3,4-7.21,7.2-7.93,12.77-1.61-1,.82-2.91-1.27-3.62-3-1-2.54,1.89-3.81,3.42-.94-2.77.74-5.64-1.14-7.88l-.25,4.27c-2.6-1.84-.85-10.34-3.16-7.33C250.16,116.46,249.71,115.71,249.79,115Zm-57.9,38.54.25.24c-.27.14-.49.36-.7,0Zm-1.56-.92c.15.31.39.52,0,.74C190.18,153,190,152.83,190.33,152.59Zm-1.07-.05c-3.24-.31-6.48.06-10.64,0C182.78,151.08,186,150.3,189.26,152.54ZM178,155c3.17-1.68,13.27-2.6,17.5,3.42,2,2.64,4.17,9.77.23,12.3-1.07,1.11-.71-.28-1-.55l-.07,0c-4-8.46-9.54-10.66-24.76-9.7A20.52,20.52,0,0,1,178,155Zm8.26,18.77c.51,3.78-6,4.11-5,.19C181,170.29,187.1,169.55,186.3,173.78Zm-7.79-3.94c-.09,3.5-6.94,5.51-6.69,1.08C171.55,167.58,178.59,166.17,178.51,169.84ZM158.83,94h0c1.38-.42,7.14,7.6,6.58,12.63a14.34,14.34,0,0,0,.59-2.79c1.48,3.36,2.63,8.42,4.46,11.78.65,1.31.36,1.43-1.09,2.32-1.17,2.12.62,5.09-1.7,7.13-.55-2.12.18-4.46-1.6-6.41-.23,3.5-.35,6.81-1.58,10-1-2.32-.21-5-2.13-7.72v10.91c-.86-2.54-.51-5.25-2.16-7.5l.06,0c.07-3.4-2.43-6.07-2.69-9.51,2.34.08,1.78,3.73,4.3,3.36a84.31,84.31,0,0,0-6.13-15.71c-.54-.28-1-.6-.5-1.28a50.67,50.67,0,0,1,7.7,12.47c.76-13.18-7.81-19.88-18.77-25.95C150.23,88.24,154.06,91.52,158.83,94ZM155,127.14c-7-6-14.35-11.62-16.35-21.39C141.59,114.79,149.74,119.85,155,127.14Zm-3.07,3.4a9.45,9.45,0,0,1,3.32,6.25c-8.22-9.09-20.06-14-22-27.23C136.79,119.05,144.74,124.42,151.91,130.54Zm3.08,8.3-.05.31-.55-.31Zm-8.29,7.78c-.2,1.37,1,2,1,2.87-.17,1.93-1.08-.88-1.74.66-1.34,3.32-12.91-6.76-13.86-9.55-.39-.82.19-1.38.52-.46,2.54,1.2,4,4,6.85,4.72l.39-.32c-2.66-4.29-8.3-5.51-9.5-10.84,4.26,3.49,8.05,7.31,13.77,7.34-.34,2.67,5.64,3.44,5.06,7.22Zm3.14,2.11c-.45.23-.51-.16-.62-.44C149.44,147.63,150.1,148.38,149.84,148.73Zm-5.7-7.74c-5.51-7.48-13.93-4.5-13.83-16.74-1.2-.23-.33-1.08-1.48-2.22,1.77,1,1.42,1.65,1.48,2.22,2,2.67,1.59,6.55,4.41,8.81,1.51-1.69-1.5-3.58-.95-5.08a.36.36,0,0,1-.43-.47l.63.28.09-.09a.61.61,0,0,1-.07.1h0c2.92,4.48,7.53,8,12.34,10.37,1.84,3,5.43,4.64,6.94,8.82C149.79,144.88,147.48,142.1,144.14,141Zm8.25,1.24c-1.84-1.13-3.63-5.1-5.81-4.46a2.8,2.8,0,0,0-.36-1.79c-1.12-.46-3.11-2.3-.58-2.23-.29-2.92-3.69-2.68-4.51-4.72,3.83.53,12.25,6.68,13.15,9.75-2.14-.59-3-3.79-5.82-2.93,2.3,3.23,6.4,5.87,6.6,10.13C153.45,145.25,153.54,143.28,152.39,142.23Zm2.61,4.34c0-.14.07-.29.11-.44l.34.48Zm1.37-16.37a3.07,3.07,0,0,1-1.38-2.57c2.2.92,2.64,3.84,3,6A5.27,5.27,0,0,1,156.37,130.2Zm2,5.19a1.71,1.71,0,0,1-.34-1.67C158.7,134.11,158.77,134.65,158.36,135.39Zm1.48-6.7c-2.1-6.17-5.45-11-9.36-15.86-1.1-.32.06-1.42.25-.27,1.48,1.68,3.65,2.84,4.57,4.92,2.36,1.74,2.42,5.14,4.9,6.79C159.15,125.59,161,127,159.84,128.69Zm10.24,50.41c3.58,6.65,15.37,7.17,17.49-.8.34-1.21.14-2.66,1.47-3.74.53,2.65,1,5.08-1.19,6.91.67,1.41,2.28.32,2.83,1.5-15.27,9.42-21.71-4.05-28.37-2.73C164.51,175.89,167.76,175.45,170.08,179.1ZM179,210.8c-.74-.08-1.66.37-2.08-.67C177.67,210.2,178.6,209.74,179,210.8Zm-2.27-.73c-2.6.18-4.81-1.16-7.17-1.89C171.94,208.89,174.53,208.72,176.74,210.07Zm-8.94-2.49-.31.14-.64-.19C167.16,207.32,167.47,207.5,167.8,207.58Zm76.7,20.62c-4.9,18.74-41.26,4.4-27.23-10.29,33.46-16.76-15.2-25.81-17.62-11.86-1.3,7.53,8.76,9.94,13.53,13.54,4.08,23.17-37.93,23.41-31.89-3-6.07-1.32-12.24-1.92-18.39-2.72,4.37.4,8.73.89,13.11,1.14,1.85.11,3.92,1.42,5.59-.55l.36-2.11c-.7-.93-2.19-.38-2.83-1.45,7.7,2.06.2-8.43,12.74-17.63,4.36-4.61,11.9-5.35,14.18-11.73,11.74-20.67-4.88-41.61-1.48-62.84.92-3.66,3.09-5.74,7.06-6.15C236,109.43,254.12,132,250.4,155.45c-6.71-2.62-13.15-4-18.81,1.92l.71.47c6.61-4.87,12.88-2.07,19.22,1.22-27.94,1.7-20.83,30.15-9.55,46.44,1.67,1.05-2.41,2.49,2.58,4.64.95-.89,2.06-.87,3.8-.51l-3.82,1.07c-.86.57-1.19,1.83-2.5,2.05,4.82,1,10.81.19,14.67.44C235.48,214.71,248.42,212.39,244.5,228.2Zm-.68-47.9c-6.33,2-4.45-9.68-.82-11.14,6.69-1.24,3.35,8.1-1.94,4.32C240.54,176.45,242.26,178.23,243.82,180.3Zm10.26,27.58a7.36,7.36,0,0,1-5.67,1.17Zm-4.77-5.55c.43-.14.73-.25.87.29l-.62.16C249.48,202.62,249.39,202.48,249.31,202.33Zm1.93-.77,1.52-.62-1.18,1.13Zm2.94-1.3.28-.09,0,.24Zm-8.81,17.51c4.07-.61,7.92.75,12.4,1.52Zm9.85-10.4h2.68C257.17,208,256.58,207.89,255.22,207.37Zm.63-7.9.34-.05.09.19C256.06,199.66,255.89,199.79,255.85,199.47Zm5.29-18.84c-2-.81-2.83.68-4,1.69-4,4.42-21.85,6.47-21.05-2.09,5.27,5.41,14.48,5.13,19.14-.81.29-.32,1.08-.78.23-1.39-7.09,1.87.88-13,.64-.62C258.05,175.07,265.4,179.86,261.14,180.63Zm2.41-40.69c2.36-5.37,7.68-7.42,12-10.61C272.84,134.16,267.6,136.38,263.55,139.94Zm22.89-2.67c0,1.84-2.62,1.93-1.91,3.82,2.08.07,2.52-2.3,4.22-2.88-1.47,5.19-10.5,12.24-16.72,12.88,3.24-3,7.19-4.61,9.74-7.93-2.44-.73-3.59,1.56-5.34,2.39-2.22,1.06-4.19,2.65-6.44,3.8,1.64-3.13,4.5-5.06,7-7.39-3.61.06-5.38,3.8-9.26,4.2.68-1.17,1.17-2,1.67-2.85l-.57-.6-2.56,2.16c.66-3.86,8.09-9.65,16.89-12.83l-5.75,5.21c5.83-1.17,9.09-5.63,12-10.48-.42,6.81-7.54,10.25-11.93,14.57C280.91,141,283.42,138.71,286.44,137.27Zm3.67-11c-.5-.24-.38-.53-.16-.94l.38.35C290.26,125.87,290.18,126.06,290.11,126.26Z"/><path class="cls-7" d="M134,127.8h0a1.84,1.84,0,0,0-.2.19A.45.45,0,0,0,134,127.8Z"/><path class="cls-7" d="M202.7,190.83a.9.9,0,0,1-1.38.3l.83-.9Z"/><path class="cls-7" d="M239.74,207.37a118,118,0,0,1,19.47-9"/><path class="cls-2" d="M239.74,207.37c6.2-3.48,12.92-7.19,19.64-9.07-6.42,2.73-13.48,5.35-19.64,9.07Z"/><path class="cls-7" d="M184.65,207.79a108.36,108.36,0,0,0-19-9.12"/><path class="cls-2" d="M184.65,207.79c-6-3.78-12.86-6.45-19.12-9.18,6.57,1.87,13.11,5.65,19.12,9.18Z"/><path class="cls-7" d="M182.83,219.83A108.66,108.66,0,0,0,163,226.7"/><path class="cls-2" d="M182.83,219.83c-6.9,1.52-13.67,4.48-20,6.95C168.77,223.47,176.08,221.55,182.83,219.83Z"/><rect class="cls-7" x="94.8" y="297.02" width="230.68" height="6.41" rx="3.21"/><path class="cls-2" d="M204.42,205.74c-.69.15-1.21,1.77-.76,3s1.59,2.07,2.26,1.8a.94.94,0,0,0,.51-.83c0-.71-.88-.81-1.11-1.66s.39-1.23.05-1.82A1,1,0,0,0,204.42,205.74Z"/><text class="cls-8" transform="translate(150.55 372.51)">THE BE<tspan class="cls-9" x="42.29" y="0">S</tspan><tspan class="cls-10" x="50.24" y="0">T</tspan><tspan class="cls-11" x="57.09" y="0" xml:space="preserve"> PE</tspan><tspan class="cls-10" x="75.96" y="0">T</tspan><tspan class="cls-11" x="82.81" y="0" xml:space="preserve"> SHOP</tspan></text><path class="cls-7" d="M362.94,173a11.53,11.53,0,0,1-13.57-6.21l1.85-.21a10.78,10.78,0,0,1-3.69,5.63c-5.69,4.71-14.69,1.63-16.56-5.44l1.83.23a12.13,12.13,0,0,1-13.54,6.32l0-.2A16.18,16.18,0,0,0,331.07,166a1,1,0,0,1,1.45-.29,1,1,0,0,1,.38.53,8.7,8.7,0,0,0,3.09,4.52c4.64,3.72,11.92,1,13.3-4.7a1,1,0,0,1,1.85-.21,14.38,14.38,0,0,0,11.77,7l0,.2Z"/><line class="cls-12" x1="311.32" y1="179.59" x2="370.87" y2="179.59"/><text class="cls-13" transform="translate(322.78 200.88)">J<tspan class="cls-14" x="8.04" y="0">JMZ</tspan></text><path class="cls-7" d="M100,173a11.61,11.61,0,0,1-13.57-6.24l1.85-.21a10.8,10.8,0,0,1-3.7,5.63c-5.68,4.71-14.69,1.63-16.55-5.44l1.83.23a12.28,12.28,0,0,1-9.64,6.6,11.07,11.07,0,0,1-3.9-.25v-.26A16,16,0,0,0,68.14,166a1,1,0,0,1,1.84.24,8.48,8.48,0,0,0,16.38-.18,1,1,0,0,1,1.85-.21,14.51,14.51,0,0,0,11.78,7l0,.2Z"/><line class="cls-12" x1="48.4" y1="179.59" x2="107.95" y2="179.59"/><text class="cls-13" transform="translate(59.85 200.88)">J<tspan class="cls-14" x="8.04" y="0">JMZ</tspan></text><path class="cls-7" d="M210.14,22.76A189.11,189.11,0,0,1,283.73,386,189.11,189.11,0,0,1,136.55,37.62a187.79,187.79,0,0,1,73.59-14.86m0-7c-108.28,0-196.06,87.78-196.06,196.07s87.78,196.06,196.06,196.06S406.2,320.11,406.2,211.83,318.42,15.76,210.14,15.76Z"/></g></g></svg>